<mxfile host="app.diagrams.net" modified="2023-01-30T14:44:47.109Z" agent="5.0 (Macintosh; Intel Mac OS X 10_15_7) AppleWebKit/537.36 (KHTML, like Gecko) Chrome/109.0.0.0 Safari/537.36" etag="B23aVvmdU5ECebeJSRwE" version="15.3.4" type="github">
  <diagram id="776BL1DpxkBQzP2cntLJ" name="Page-1">
    <mxGraphModel dx="1135" dy="742" grid="1" gridSize="10" guides="1" tooltips="1" connect="1" arrows="1" fold="1" page="1" pageScale="1" pageWidth="850" pageHeight="1100" math="0" shadow="0">
      <root>
        <mxCell id="0" />
        <mxCell id="1" parent="0" />
        <mxCell id="R4GE0-EniTPA0ROm6tR0-14" style="edgeStyle=none;curved=1;rounded=0;orthogonalLoop=1;jettySize=auto;html=1;entryX=0.5;entryY=0;entryDx=0;entryDy=0;fontFamily=Times New Roman;fontSize=10;endArrow=open;startSize=14;endSize=14;sourcePerimeterSpacing=8;targetPerimeterSpacing=8;" edge="1" parent="1" source="R4GE0-EniTPA0ROm6tR0-4" target="R4GE0-EniTPA0ROm6tR0-11">
          <mxGeometry relative="1" as="geometry" />
        </mxCell>
        <mxCell id="R4GE0-EniTPA0ROm6tR0-4" value="state-of-the-art&lt;br&gt;remote sensing&lt;br&gt;building polygon extract algorithm&lt;br&gt;" style="ellipse;whiteSpace=wrap;html=1;hachureGap=4;pointerEvents=0;" vertex="1" parent="1">
          <mxGeometry x="110" y="260" width="180" height="80" as="geometry" />
        </mxCell>
        <mxCell id="R4GE0-EniTPA0ROm6tR0-16" style="edgeStyle=none;curved=1;rounded=0;orthogonalLoop=1;jettySize=auto;html=1;fontFamily=Times New Roman;fontSize=10;endArrow=open;startSize=14;endSize=14;sourcePerimeterSpacing=8;targetPerimeterSpacing=8;entryX=1;entryY=0;entryDx=0;entryDy=0;" edge="1" parent="1" source="R4GE0-EniTPA0ROm6tR0-5" target="R4GE0-EniTPA0ROm6tR0-12">
          <mxGeometry relative="1" as="geometry" />
        </mxCell>
        <mxCell id="R4GE0-EniTPA0ROm6tR0-21" style="edgeStyle=none;curved=1;rounded=0;orthogonalLoop=1;jettySize=auto;html=1;fontFamily=Times New Roman;fontSize=10;endArrow=open;startSize=14;endSize=14;sourcePerimeterSpacing=8;targetPerimeterSpacing=8;" edge="1" parent="1" source="R4GE0-EniTPA0ROm6tR0-5" target="R4GE0-EniTPA0ROm6tR0-20">
          <mxGeometry relative="1" as="geometry" />
        </mxCell>
        <mxCell id="R4GE0-EniTPA0ROm6tR0-5" value="&lt;span style=&quot;color: rgb(32 , 33 , 36) ; text-align: left&quot;&gt;Multi-angle &lt;br&gt;Street View image&lt;/span&gt;" style="rounded=0;whiteSpace=wrap;html=1;hachureGap=4;pointerEvents=0;fontFamily=Times New Roman;fontSize=10;" vertex="1" parent="1">
          <mxGeometry x="470" y="160" width="130" height="60" as="geometry" />
        </mxCell>
        <mxCell id="R4GE0-EniTPA0ROm6tR0-13" style="edgeStyle=none;curved=1;rounded=0;orthogonalLoop=1;jettySize=auto;html=1;entryX=0.5;entryY=0;entryDx=0;entryDy=0;fontFamily=Times New Roman;fontSize=10;endArrow=open;startSize=14;endSize=14;sourcePerimeterSpacing=8;targetPerimeterSpacing=8;" edge="1" parent="1" source="R4GE0-EniTPA0ROm6tR0-6" target="R4GE0-EniTPA0ROm6tR0-4">
          <mxGeometry relative="1" as="geometry" />
        </mxCell>
        <mxCell id="R4GE0-EniTPA0ROm6tR0-6" value="satellite imagery" style="rounded=0;whiteSpace=wrap;html=1;hachureGap=4;pointerEvents=0;fontFamily=Times New Roman;" vertex="1" parent="1">
          <mxGeometry x="160" y="165" width="130" height="50" as="geometry" />
        </mxCell>
        <mxCell id="R4GE0-EniTPA0ROm6tR0-17" style="edgeStyle=none;curved=1;rounded=0;orthogonalLoop=1;jettySize=auto;html=1;entryX=0.5;entryY=0;entryDx=0;entryDy=0;fontFamily=Times New Roman;fontSize=10;endArrow=open;startSize=14;endSize=14;sourcePerimeterSpacing=8;targetPerimeterSpacing=8;" edge="1" parent="1" source="R4GE0-EniTPA0ROm6tR0-9" target="R4GE0-EniTPA0ROm6tR0-12">
          <mxGeometry relative="1" as="geometry" />
        </mxCell>
        <mxCell id="R4GE0-EniTPA0ROm6tR0-9" value="UAV image" style="rounded=0;whiteSpace=wrap;html=1;hachureGap=4;pointerEvents=0;fontFamily=Times New Roman;" vertex="1" parent="1">
          <mxGeometry x="310" y="165" width="130" height="50" as="geometry" />
        </mxCell>
        <mxCell id="R4GE0-EniTPA0ROm6tR0-15" style="edgeStyle=none;curved=1;rounded=0;orthogonalLoop=1;jettySize=auto;html=1;entryX=0;entryY=0.5;entryDx=0;entryDy=0;fontFamily=Times New Roman;fontSize=10;endArrow=open;startSize=14;endSize=14;sourcePerimeterSpacing=8;targetPerimeterSpacing=8;" edge="1" parent="1" source="R4GE0-EniTPA0ROm6tR0-11" target="R4GE0-EniTPA0ROm6tR0-12">
          <mxGeometry relative="1" as="geometry" />
        </mxCell>
        <mxCell id="R4GE0-EniTPA0ROm6tR0-32" style="edgeStyle=none;curved=1;rounded=0;orthogonalLoop=1;jettySize=auto;html=1;entryX=0;entryY=0;entryDx=0;entryDy=0;fontFamily=Times New Roman;fontSize=10;endArrow=open;startSize=14;endSize=14;sourcePerimeterSpacing=8;targetPerimeterSpacing=8;" edge="1" parent="1" source="R4GE0-EniTPA0ROm6tR0-11" target="R4GE0-EniTPA0ROm6tR0-26">
          <mxGeometry relative="1" as="geometry" />
        </mxCell>
        <mxCell id="R4GE0-EniTPA0ROm6tR0-11" value="geometries of&lt;br&gt;building masks" style="rounded=0;whiteSpace=wrap;html=1;hachureGap=4;pointerEvents=0;fontFamily=Times New Roman;" vertex="1" parent="1">
          <mxGeometry x="180" y="410" width="130" height="50" as="geometry" />
        </mxCell>
        <mxCell id="R4GE0-EniTPA0ROm6tR0-23" style="edgeStyle=none;curved=1;rounded=0;orthogonalLoop=1;jettySize=auto;html=1;entryX=0.5;entryY=0;entryDx=0;entryDy=0;fontFamily=Times New Roman;fontSize=10;endArrow=open;startSize=14;endSize=14;sourcePerimeterSpacing=8;targetPerimeterSpacing=8;" edge="1" parent="1" source="R4GE0-EniTPA0ROm6tR0-12" target="R4GE0-EniTPA0ROm6tR0-18">
          <mxGeometry relative="1" as="geometry" />
        </mxCell>
        <mxCell id="R4GE0-EniTPA0ROm6tR0-12" value="state-of-the-art&lt;br&gt;&lt;span lang=&quot;EN-US&quot; style=&quot;&quot;&gt;&lt;font style=&quot;font-size: 12px&quot;&gt;3D building reconstruction&lt;br&gt;with few-shot learning&lt;br&gt;&lt;/font&gt;&lt;/span&gt;&lt;span style=&quot;font-size: medium&quot;&gt;&lt;/span&gt;" style="ellipse;whiteSpace=wrap;html=1;hachureGap=4;pointerEvents=0;fontFamily=Times New Roman;" vertex="1" parent="1">
          <mxGeometry x="320" y="300" width="180" height="80" as="geometry" />
        </mxCell>
        <mxCell id="R4GE0-EniTPA0ROm6tR0-33" style="edgeStyle=none;curved=1;rounded=0;orthogonalLoop=1;jettySize=auto;html=1;entryX=0.5;entryY=0;entryDx=0;entryDy=0;fontFamily=Times New Roman;fontSize=10;endArrow=open;startSize=14;endSize=14;sourcePerimeterSpacing=8;targetPerimeterSpacing=8;" edge="1" parent="1" source="R4GE0-EniTPA0ROm6tR0-18" target="R4GE0-EniTPA0ROm6tR0-26">
          <mxGeometry relative="1" as="geometry" />
        </mxCell>
        <mxCell id="R4GE0-EniTPA0ROm6tR0-18" value="geometries of&lt;br&gt;3d buildings" style="rounded=0;whiteSpace=wrap;html=1;hachureGap=4;pointerEvents=0;fontFamily=Times New Roman;" vertex="1" parent="1">
          <mxGeometry x="345" y="420" width="95" height="50" as="geometry" />
        </mxCell>
        <mxCell id="R4GE0-EniTPA0ROm6tR0-24" style="edgeStyle=none;curved=1;rounded=0;orthogonalLoop=1;jettySize=auto;html=1;entryX=0.75;entryY=0;entryDx=0;entryDy=0;fontFamily=Times New Roman;fontSize=10;endArrow=open;startSize=14;endSize=14;sourcePerimeterSpacing=8;targetPerimeterSpacing=8;" edge="1" parent="1" source="R4GE0-EniTPA0ROm6tR0-20" target="R4GE0-EniTPA0ROm6tR0-22">
          <mxGeometry relative="1" as="geometry" />
        </mxCell>
        <mxCell id="R4GE0-EniTPA0ROm6tR0-25" value="" style="edgeStyle=none;curved=1;rounded=0;orthogonalLoop=1;jettySize=auto;html=1;fontFamily=Times New Roman;fontSize=10;endArrow=open;startSize=14;endSize=14;sourcePerimeterSpacing=8;targetPerimeterSpacing=8;" edge="1" parent="1" source="R4GE0-EniTPA0ROm6tR0-20" target="R4GE0-EniTPA0ROm6tR0-22">
          <mxGeometry relative="1" as="geometry" />
        </mxCell>
        <mxCell id="R4GE0-EniTPA0ROm6tR0-20" value="&lt;span lang=&quot;EN-US&quot;&gt;&lt;font style=&quot;font-size: 12px&quot;&gt;building material classfication&lt;br&gt;&lt;/font&gt;&lt;/span&gt;&lt;span style=&quot;font-size: medium&quot;&gt;&lt;/span&gt;" style="ellipse;whiteSpace=wrap;html=1;hachureGap=4;pointerEvents=0;fontFamily=Times New Roman;" vertex="1" parent="1">
          <mxGeometry x="520" y="310" width="110" height="80" as="geometry" />
        </mxCell>
        <mxCell id="R4GE0-EniTPA0ROm6tR0-34" style="edgeStyle=none;curved=1;rounded=0;orthogonalLoop=1;jettySize=auto;html=1;entryX=1;entryY=0;entryDx=0;entryDy=0;fontFamily=Times New Roman;fontSize=10;endArrow=open;startSize=14;endSize=14;sourcePerimeterSpacing=8;targetPerimeterSpacing=8;" edge="1" parent="1" source="R4GE0-EniTPA0ROm6tR0-22" target="R4GE0-EniTPA0ROm6tR0-26">
          <mxGeometry relative="1" as="geometry" />
        </mxCell>
        <mxCell id="R4GE0-EniTPA0ROm6tR0-22" value="buiding material" style="rounded=0;whiteSpace=wrap;html=1;hachureGap=4;pointerEvents=0;fontFamily=Times New Roman;" vertex="1" parent="1">
          <mxGeometry x="470" y="430" width="80" height="50" as="geometry" />
        </mxCell>
        <mxCell id="R4GE0-EniTPA0ROm6tR0-38" style="edgeStyle=none;curved=1;rounded=0;orthogonalLoop=1;jettySize=auto;html=1;fontFamily=Times New Roman;fontSize=10;endArrow=open;startSize=14;endSize=14;sourcePerimeterSpacing=8;targetPerimeterSpacing=8;" edge="1" parent="1" source="R4GE0-EniTPA0ROm6tR0-26" target="R4GE0-EniTPA0ROm6tR0-37">
          <mxGeometry relative="1" as="geometry" />
        </mxCell>
        <mxCell id="R4GE0-EniTPA0ROm6tR0-26" value="&lt;span style=&quot;font-size: 11px&quot;&gt;&amp;nbsp;&lt;span lang=&quot;EN-US&quot; style=&quot;font-size: 11px&quot;&gt;physical-based UBEM simulation engine&lt;/span&gt;&lt;/span&gt;&lt;span style=&quot;font-size: medium&quot;&gt;&lt;/span&gt;" style="ellipse;whiteSpace=wrap;html=1;hachureGap=4;pointerEvents=0;fontFamily=Times New Roman;" vertex="1" parent="1">
          <mxGeometry x="320" y="540" width="190" height="60" as="geometry" />
        </mxCell>
        <mxCell id="R4GE0-EniTPA0ROm6tR0-31" style="edgeStyle=none;curved=1;rounded=0;orthogonalLoop=1;jettySize=auto;html=1;entryX=0;entryY=0.5;entryDx=0;entryDy=0;fontFamily=Times New Roman;fontSize=10;endArrow=open;startSize=14;endSize=14;sourcePerimeterSpacing=8;targetPerimeterSpacing=8;" edge="1" parent="1" source="R4GE0-EniTPA0ROm6tR0-28" target="R4GE0-EniTPA0ROm6tR0-26">
          <mxGeometry relative="1" as="geometry" />
        </mxCell>
        <mxCell id="R4GE0-EniTPA0ROm6tR0-28" value="station observed or simulated&lt;br&gt;local climate data" style="rounded=0;whiteSpace=wrap;html=1;hachureGap=4;pointerEvents=0;fontFamily=Times New Roman;" vertex="1" parent="1">
          <mxGeometry x="120" y="510" width="120" height="50" as="geometry" />
        </mxCell>
        <mxCell id="R4GE0-EniTPA0ROm6tR0-35" style="edgeStyle=none;curved=1;rounded=0;orthogonalLoop=1;jettySize=auto;html=1;entryX=0;entryY=1;entryDx=0;entryDy=0;fontFamily=Times New Roman;fontSize=10;endArrow=open;startSize=14;endSize=14;sourcePerimeterSpacing=8;targetPerimeterSpacing=8;" edge="1" parent="1" source="R4GE0-EniTPA0ROm6tR0-29" target="R4GE0-EniTPA0ROm6tR0-26">
          <mxGeometry relative="1" as="geometry" />
        </mxCell>
        <mxCell id="R4GE0-EniTPA0ROm6tR0-29" value="GIS-based data" style="rounded=0;whiteSpace=wrap;html=1;hachureGap=4;pointerEvents=0;fontFamily=Times New Roman;" vertex="1" parent="1">
          <mxGeometry x="120" y="585" width="120" height="30" as="geometry" />
        </mxCell>
        <mxCell id="R4GE0-EniTPA0ROm6tR0-36" style="edgeStyle=none;curved=1;rounded=0;orthogonalLoop=1;jettySize=auto;html=1;entryX=1;entryY=0.5;entryDx=0;entryDy=0;fontFamily=Times New Roman;fontSize=10;endArrow=open;startSize=14;endSize=14;sourcePerimeterSpacing=8;targetPerimeterSpacing=8;" edge="1" parent="1" source="R4GE0-EniTPA0ROm6tR0-30" target="R4GE0-EniTPA0ROm6tR0-26">
          <mxGeometry relative="1" as="geometry" />
        </mxCell>
        <mxCell id="R4GE0-EniTPA0ROm6tR0-30" value="address and POIs" style="rounded=0;whiteSpace=wrap;html=1;hachureGap=4;pointerEvents=0;fontFamily=Times New Roman;" vertex="1" parent="1">
          <mxGeometry x="540" y="520" width="120" height="30" as="geometry" />
        </mxCell>
        <mxCell id="R4GE0-EniTPA0ROm6tR0-37" value="Output of energy consumption for decision-making" style="rounded=0;whiteSpace=wrap;html=1;hachureGap=4;pointerEvents=0;fontFamily=Times New Roman;" vertex="1" parent="1">
          <mxGeometry x="367.5" y="640" width="95" height="50" as="geometry" />
        </mxCell>
      </root>
    </mxGraphModel>
  </diagram>
</mxfile>
